<svg width="24" height="24" viewBox="0 0 24 24" fill="none" xmlns="http://www.w3.org/2000/svg">
<path fill-rule="evenodd" clip-rule="evenodd" d="M12 18C14.7614 18 17 15.7614 17 13C17 10.2386 14.7614 8 12 8C9.23858 8 7 10.2386 7 13C7 15.7614 9.23858 18 12 18ZM12 16.5C13.933 16.5 15.5 14.933 15.5 13C15.5 11.067 13.933 9.5 12 9.5C10.067 9.5 8.5 11.067 8.5 13C8.5 14.933 10.067 16.5 12 16.5Z" fill="#53A6FD"/>
<path fill-rule="evenodd" clip-rule="evenodd" d="M6 5H5C2.79086 5 1 6.79086 1 9V17C1 19.7614 3.23858 22 6 22H18C20.7614 22 23 19.7614 23 17V9C23 6.79086 21.2091 5 19 5H18V6.5H18.5C20.1569 6.5 21.5 7.84315 21.5 9.5V16.5C21.5 18.7091 19.7091 20.5 17.5 20.5H6.5C4.29086 20.5 2.5 18.7091 2.5 16.5V9.5C2.5 7.84315 3.84315 6.5 5.5 6.5H6V5Z" fill="#53A6FD"/>
<path fill-rule="evenodd" clip-rule="evenodd" d="M8.39951 3.75061C8.77906 3.27618 9.35368 3 9.96125 3H14.0388C14.6463 3 15.2209 3.27618 15.6005 3.75061L16.1133 4.39165C16.4209 4.77617 16.8866 5 17.3791 5H18.25C18.6642 5 19 5.33579 19 5.75C19 6.16421 18.6642 6.5 18.25 6.5H17.8H16.5612C15.9537 6.5 15.3791 6.22382 14.9995 5.74939L14.6005 5.25061C14.2209 4.77618 13.6463 4.5 13.0388 4.5H10.9612C10.3537 4.5 9.77906 4.77618 9.39951 5.25061L9.00049 5.74939C8.62094 6.22382 8.04632 6.5 7.43875 6.5H6.2H5.75C5.33579 6.5 5 6.16421 5 5.75C5 5.33579 5.33579 5 5.75 5H6.62094C7.11335 5 7.57907 4.77616 7.88668 4.39165L8.39951 3.75061Z" fill="#53A6FD"/>
</svg>
