<svg width="16" height="16" viewBox="0 0 16 16" fill="none" xmlns="http://www.w3.org/2000/svg">
<path d="M6.78503 11.8186C6.66427 11.6979 6.65429 11.5054 6.7619 11.3729L7.28973 10.7226C7.41434 10.569 7.64443 10.5571 7.78424 10.6969L7.87736 10.79C8.0172 10.9299 8.24733 10.9179 8.37192 10.7643L14.5712 3.12333C14.6872 2.98037 14.8971 2.9585 15.0401 3.07449L15.6872 3.59948C15.8302 3.71549 15.852 3.92544 15.736 4.0684L8.48667 12.9999C8.36207 13.1534 8.132 13.1654 7.99218 13.0256L6.78503 11.8186Z" fill="#FDFDFD"/>
<path d="M0.569088 9.93637L3.65885 13.0256C3.79867 13.1654 4.02874 13.1534 4.15334 12.9999L11.4027 4.0684C11.5187 3.92544 11.4968 3.71549 11.3539 3.59948L10.7068 3.07449C10.5638 2.9585 10.3539 2.98037 10.2379 3.12333L4.03859 10.7643C3.91399 10.9179 3.68387 10.9299 3.54403 10.79L1.62971 8.87571C1.49953 8.74554 1.28848 8.74554 1.1583 8.87571L0.569067 9.46495C0.438884 9.59513 0.438893 9.8062 0.569088 9.93637Z" fill="#FDFDFD"/>
</svg>
