<svg width="24" height="24" viewBox="0 0 24 24" fill="none" xmlns="http://www.w3.org/2000/svg">
<path fill-rule="evenodd" clip-rule="evenodd" d="M7.5 4.5C7.5 2.01471 9.51471 0 12 0C14.4853 0 16.5 2.01471 16.5 4.5V11.5C16.5 13.9853 14.4853 16 12 16C9.51471 16 7.5 13.9853 7.5 11.5V4.5ZM9 4.5C9 2.84314 10.3431 1.5 12 1.5C13.6569 1.5 15 2.84314 15 4.5V11.5C15 13.1569 13.6569 14.5 12 14.5C10.3431 14.5 9 13.1569 9 11.5V4.5Z" fill="#53A6FD"/>
<path d="M6 11.75V12.5C6 15.8137 8.68628 18.5 12 18.5C15.3137 18.5 18 15.8137 18 12.5V11.75C18 11.3358 18.3358 11 18.75 11C19.1642 11 19.5 11.3358 19.5 11.75V12.5C19.5 16.3031 16.6694 19.445 13 19.9339V22C13 22.5523 12.5523 23 12 23C11.4477 23 11 22.5523 11 22V19.9339C7.33063 19.445 4.5 16.3031 4.5 12.5V11.75C4.5 11.3358 4.83582 11 5.25 11C5.66418 11 6 11.3358 6 11.75Z" fill="#53A6FD"/>
</svg>
