<svg width="24" height="24" viewBox="0 0 24 24" fill="none" xmlns="http://www.w3.org/2000/svg">
<path fill-rule="evenodd" clip-rule="evenodd" d="M8.5 8.37862L9.04083 7.8378L5.8086 3.31267L3.88181 5.23946C3.88153 5.23974 3.8813 5.23998 3.88112 5.24019C3.642 6.44076 3.43131 7.77056 3.85021 9.42897C4.27106 11.0951 5.37179 13.2504 8.06066 15.9393C10.7495 18.6282 12.9049 19.7289 14.571 20.1497C16.2299 20.5688 17.56 20.3578 18.7609 20.1186C18.7614 20.1185 18.7618 20.1184 18.7623 20.1183C18.7618 20.1184 18.7613 20.1185 18.761 20.1186C18.7584 20.1194 18.7585 20.1201 18.7605 20.1181L20.6873 18.1913L16.1621 14.9591L15.6213 15.4999C14.4497 16.6715 12.5502 16.6715 11.3787 15.4999L8.5 12.6213C7.32843 11.4497 7.32843 9.5502 8.5 8.37862ZM9.56066 9.43928C8.97488 10.0251 8.97488 10.9748 9.56066 11.5606L12.4393 14.4393C13.0251 15.0251 13.9749 15.0251 14.5607 14.4393L15.1015 13.8985C15.62 13.38 16.4373 13.3123 17.034 13.7385L21.5591 16.9707C22.3134 17.5095 22.4034 18.5966 21.7479 19.252L19.8211 21.1788C19.6117 21.3882 19.3458 21.5315 19.0554 21.5894C16.535 22.0916 12.6562 22.6561 7 16.9999C1.34381 11.3438 1.90838 7.46492 2.41054 4.94458C2.4684 4.65415 2.61175 4.3882 2.82115 4.1788L4.74794 2.25201C5.40336 1.59659 6.49044 1.68656 7.0292 2.44081L10.2614 6.96594C10.6876 7.56262 10.62 8.37996 10.1015 8.89846L9.56066 9.43928Z" fill="#53A6FD"/>
</svg>
