<svg width="24" height="24" viewBox="0 0 24 24" fill="none" xmlns="http://www.w3.org/2000/svg">
<path fill-rule="evenodd" clip-rule="evenodd" d="M12.9 6.75001C12.9 6.25295 12.497 5.85001 12 5.85001C11.5029 5.85001 11.1 6.25295 11.1 6.75001V11.1H6.74998C6.25292 11.1 5.84998 11.5029 5.84998 12C5.84998 12.4971 6.25292 12.9 6.74998 12.9H11.1V17.25C11.1 17.7471 11.5029 18.15 12 18.15C12.497 18.15 12.9 17.7471 12.9 17.25V12.9H17.25C17.747 12.9 18.15 12.4971 18.15 12C18.15 11.503 17.747 11.1 17.25 11.1H12.9V6.75001Z" fill="black"/>
</svg>
