<svg width="24" height="24" viewBox="0 0 24 24" fill="none" xmlns="http://www.w3.org/2000/svg">
<path fill-rule="evenodd" clip-rule="evenodd" d="M9 3C5.68629 3 3 5.68629 3 9V15C3 18.3137 5.68629 21 9 21H11C16.5228 21 21 16.5228 21 11V9C21 5.68629 18.3137 3 15 3H9ZM19.5 9.5C19.5 6.73858 17.2614 4.5 14.5 4.5H9.5C6.73858 4.5 4.5 6.73858 4.5 9.5V14.5C4.5 17.2614 6.73858 19.5 9.5 19.5H10.5C11.1874 19.5 11.8568 19.4229 12.5 19.277V17.5C12.5 14.7386 14.7386 12.5 17.5 12.5H19.277C19.4229 11.8568 19.5 11.1874 19.5 10.5V9.5ZM14 18V18.7941C16.1561 17.8831 17.8831 16.1561 18.7941 14H18C15.7909 14 14 15.7909 14 18Z" fill="#53A6FD"/>
</svg>
