<svg width="24" height="24" viewBox="0 0 24 24" fill="none" xmlns="http://www.w3.org/2000/svg">
<path fill-rule="evenodd" clip-rule="evenodd" d="M0 7.5C0 5.29086 1.79086 3.5 4 3.5H14C16.2091 3.5 18 5.29086 18 7.5V8.16667L20.7721 6.01057C22.0858 4.98879 24 5.92498 24 7.58928V16.4107C24 18.075 22.0858 19.0112 20.7721 17.9894L18 15.8333V16.5C18 18.7091 16.2091 20.5 14 20.5H4C1.79086 20.5 0 18.7091 0 16.5V7.5ZM4 5H14C15.3807 5 16.5 6.11929 16.5 7.5V16.5C16.5 17.8807 15.3807 19 14 19H4C2.61929 19 1.5 17.8807 1.5 16.5V7.5C1.5 6.11929 2.61929 5 4 5ZM18 13.933L21.693 16.8054C22.0215 17.0608 22.5 16.8268 22.5 16.4107V7.58928C22.5 7.1732 22.0215 6.93916 21.693 7.1946L18 10.067V13.933Z" fill="#53A6FD"/>
</svg>
